<?xml version="1.0" standalone="no"?>
<!DOCTYPE svg PUBLIC "-//W3C//DTD SVG 20010904//EN"
 "http://www.w3.org/TR/2001/REC-SVG-20010904/DTD/svg10.dtd">
<svg version="1.0" xmlns="http://www.w3.org/2000/svg"
 width="225.000000pt" height="225.000000pt" viewBox="0 0 225.000000 225.000000"
 preserveAspectRatio="xMidYMid meet">
<metadata>
Created by potrace 1.14, written by Peter Selinger 2001-2017
</metadata>
<g transform="translate(0.000000,225.000000) scale(0.100000,-0.100000)"
fill="#000000" stroke="none">
<path d="M449 2087 c-32 -21 -126 -162 -320 -482 -56 -92 -60 -104 -56 -147 3
-32 13 -60 33 -85 15 -21 230 -301 478 -622 465 -604 471 -611 541 -611 70 0
76 7 541 611 248 321 463 601 478 622 33 43 45 112 26 148 -23 43 -302 493
-327 527 -48 65 -17 62 -721 62 l-639 0 -34 -23z m531 -120 c0 -12 -259 -346
-263 -340 -4 7 -83 190 -134 311 l-13 32 205 0 c113 0 205 -1 205 -3z m687
-29 c-50 -117 -130 -304 -134 -310 -3 -7 -228 283 -257 330 -6 9 37 12 199 12
l205 0 -13 -32z m-403 -204 l135 -179 -140 -3 c-77 -1 -200 -1 -274 0 l-134 3
137 182 c75 100 137 181 139 179 2 -1 64 -83 137 -182z m-735 -32 c34 -79 61
-146 61 -148 0 -2 -72 -4 -160 -4 -88 0 -160 3 -160 6 0 15 185 302 191 296 4
-4 34 -72 68 -150z m1370 -9 c44 -72 81 -134 81 -137 0 -3 -72 -6 -160 -6 -88
0 -160 2 -160 4 0 2 23 58 51 123 28 65 57 133 65 152 17 41 5 55 123 -136z
m-1118 -653 c71 -201 145 -410 164 -465 20 -55 30 -93 22 -85 -12 13 -593 766
-681 883 l-29 37 198 -2 197 -3 129 -365z m659 359 c0 -10 -309 -891 -314
-896 -4 -4 -316 883 -316 896 0 8 99 11 315 11 217 0 315 -3 315 -11z m524
-26 c-98 -131 -669 -871 -681 -883 -9 -10 -5 10 11 55 14 39 86 243 161 455
74 212 137 391 140 398 3 9 53 12 201 12 l196 0 -28 -37z"/>
</g>
</svg>
